<?xml version="1.0" standalone="no"?>
<!DOCTYPE svg PUBLIC "-//W3C//DTD SVG 20010904//EN"
 "http://www.w3.org/TR/2001/REC-SVG-20010904/DTD/svg10.dtd">
<svg version="1.0" xmlns="http://www.w3.org/2000/svg"
 width="20.000000pt" height="20.000000pt" viewBox="0 0 20.000000 20.000000"
 preserveAspectRatio="xMidYMid meet">

<g transform="translate(0.000000,20.000000) scale(0.100000,-0.100000)"
fill="#000000" stroke="none">
<path d="M37 178 c-19 -18 -26 -36 -30 -78 l-5 -56 51 -1 c75 -2 115 37 102
98 -13 57 -75 76 -118 37z"/>
<path d="M180 114 c0 -29 -37 -74 -74 -90 l-31 -13 40 -1 c22 0 49 -3 61 -6
19 -5 21 -1 22 48 1 29 -3 60 -8 68 -8 12 -10 11 -10 -6z"/>
</g>
</svg>
