<?xml version="1.0" standalone="no"?>
<!DOCTYPE svg PUBLIC "-//W3C//DTD SVG 20010904//EN"
 "http://www.w3.org/TR/2001/REC-SVG-20010904/DTD/svg10.dtd">
<svg version="1.0" xmlns="http://www.w3.org/2000/svg"
 width="21.000000pt" height="20.000000pt" viewBox="0 0 21.000000 20.000000"
 preserveAspectRatio="xMidYMid meet">

<g transform="translate(0.000000,20.000000) scale(0.100000,-0.100000)"
fill="#000000" stroke="none">
<path d="M0 100 l0 -100 105 0 105 0 0 100 0 100 -105 0 -105 0 0 -100z m190
0 l0 -80 -85 0 -85 0 0 80 0 80 85 0 85 0 0 -80z"/>
<path d="M90 140 c0 -5 7 -10 15 -10 8 0 15 5 15 10 0 6 -7 10 -15 10 -8 0
-15 -4 -15 -10z"/>
<path d="M90 80 c0 -20 5 -30 15 -30 10 0 15 10 15 30 0 20 -5 30 -15 30 -10
0 -15 -10 -15 -30z"/>
</g>
</svg>
