<?xml version="1.0" standalone="no"?>
<!DOCTYPE svg PUBLIC "-//W3C//DTD SVG 20010904//EN"
 "http://www.w3.org/TR/2001/REC-SVG-20010904/DTD/svg10.dtd">
<svg version="1.0" xmlns="http://www.w3.org/2000/svg"
 width="21.000000pt" height="20.000000pt" viewBox="0 0 21.000000 20.000000"
 preserveAspectRatio="xMidYMid meet">

<g transform="translate(0.000000,20.000000) scale(0.100000,-0.100000)"
fill="#000000" stroke="none">
<path d="M67 194 c-3 -4 -3 -20 0 -36 6 -29 5 -29 -31 -23 -29 6 -36 4 -36 -9
0 -21 46 -50 66 -42 11 4 32 -9 65 -39 26 -25 53 -45 58 -45 28 0 18 27 -25
71 -33 33 -48 57 -46 70 5 30 -34 70 -51 53z"/>
</g>
</svg>
